
<svg width="100%" height="100%" viewBox="0 0 399 396" version="1.1" xmlns="http://www.w3.org/2000/svg" xmlns:xlink="http://www.w3.org/1999/xlink" xml:space="preserve" xmlns:serif="http://www.serif.com/" style="fill-rule:evenodd;clip-rule:evenodd;stroke-linejoin:round;stroke-miterlimit:2;">

    <path d="M51.146,305.66c21.203,-0 38.391,17.181 38.391,38.391c-0,21.199 -17.188,38.389 -38.391,38.389c-21.203,0 -38.391,-17.19 -38.391,-38.389c-0,-21.21 17.188,-38.391 38.391,-38.391Z" style="fill:#231f20;fill-rule:nonzero;"/>

    <path d="M51.146,318.41c-14.135,-0 -25.635,11.5 -25.635,25.641c-0,14.129 11.5,25.629 25.635,25.629c14.135,-0 25.635,-11.5 25.635,-25.629c-0,-14.141 -11.5,-25.641 -25.635,-25.641Zm-0,76.78c-28.202,0 -51.146,-22.94 -51.146,-51.139c0,-28.21 22.944,-51.151 51.146,-51.151c28.202,-0 51.147,22.941 51.147,51.151c-0,28.199 -22.945,51.139 -51.147,51.139Z" style="fill:#231f20;fill-rule:nonzero;"/>

    <path d="M51.146,159.21c21.203,-0 38.391,17.18 38.391,38.39c-0,21.2 -17.188,38.39 -38.391,38.39c-21.203,-0 -38.391,-17.19 -38.391,-38.39c-0,-21.21 17.188,-38.39 38.391,-38.39Z" style="fill:#231f20;fill-rule:nonzero;"/>

    <path d="M51.146,171.96c-14.135,-0 -25.635,11.5 -25.635,25.64c-0,14.13 11.5,25.63 25.635,25.63c14.135,-0 25.635,-11.5 25.635,-25.63c-0,-14.14 -11.5,-25.64 -25.635,-25.64Zm-0,76.78c-28.202,-0 -51.146,-22.94 -51.146,-51.14c0,-28.21 22.944,-51.15 51.146,-51.15c28.202,-0 51.147,22.94 51.147,51.15c-0,28.2 -22.945,51.14 -51.147,51.14Z" style="fill:#231f20;fill-rule:nonzero;"/>

    <path d="M51.146,12.76c21.203,0 38.391,17.18 38.391,38.39c-0,21.2 -17.188,38.39 -38.391,38.39c-21.203,0 -38.391,-17.19 -38.391,-38.39c-0,-21.21 17.188,-38.39 38.391,-38.39Z" style="fill:#231f20;fill-rule:nonzero;"/>

    <path d="M51.146,25.51c-14.135,0 -25.635,11.5 -25.635,25.64c-0,14.13 11.5,25.63 25.635,25.63c14.135,0 25.635,-11.5 25.635,-25.63c-0,-14.14 -11.5,-25.64 -25.635,-25.64Zm-0,76.78c-28.202,0 -51.146,-22.94 -51.146,-51.14c0,-28.21 22.944,-51.15 51.146,-51.15c28.202,-0 51.147,22.94 51.147,51.15c-0,28.2 -22.945,51.14 -51.147,51.14Z" style="fill:#231f20;fill-rule:nonzero;"/>

    <path d="M199.273,305.66c21.202,-0 38.391,17.181 38.391,38.391c0,21.199 -17.189,38.389 -38.391,38.389c-21.203,0 -38.391,-17.19 -38.391,-38.389c-0,-21.21 17.188,-38.391 38.391,-38.391Z" style="fill:#231f20;fill-rule:nonzero;"/>

    <path d="M199.273,318.41c-14.135,-0 -25.635,11.5 -25.635,25.641c0,14.129 11.5,25.629 25.635,25.629c14.135,-0 25.635,-11.5 25.635,-25.629c-0,-14.141 -11.5,-25.641 -25.635,-25.641Zm-0,76.78c-28.202,0 -51.146,-22.94 -51.146,-51.139c-0,-28.21 22.944,-51.151 51.146,-51.151c28.202,-0 51.146,22.941 51.146,51.151c-0,28.199 -22.944,51.139 -51.146,51.139Z" style="fill:#231f20;fill-rule:nonzero;"/>

    <path d="M199.273,159.21c21.202,-0 38.391,17.18 38.391,38.39c0,21.2 -17.189,38.39 -38.391,38.39c-21.203,-0 -38.391,-17.19 -38.391,-38.39c-0,-21.21 17.188,-38.39 38.391,-38.39Z" style="fill:#231f20;fill-rule:nonzero;"/>

    <path d="M199.273,171.96c-14.135,-0 -25.635,11.5 -25.635,25.64c0,14.13 11.5,25.63 25.635,25.63c14.135,-0 25.635,-11.5 25.635,-25.63c-0,-14.14 -11.5,-25.64 -25.635,-25.64Zm-0,76.78c-28.202,-0 -51.146,-22.94 -51.146,-51.14c-0,-28.21 22.944,-51.15 51.146,-51.15c28.202,-0 51.146,22.94 51.146,51.15c-0,28.2 -22.944,51.14 -51.146,51.14Z" style="fill:#231f20;fill-rule:nonzero;"/>

    <path d="M199.273,12.76c21.202,0 38.391,17.18 38.391,38.39c0,21.2 -17.189,38.39 -38.391,38.39c-21.203,0 -38.391,-17.19 -38.391,-38.39c-0,-21.21 17.188,-38.39 38.391,-38.39Z" style="fill:#231f20;fill-rule:nonzero;"/>

    <path d="M199.273,25.51c-14.135,0 -25.635,11.5 -25.635,25.64c0,14.13 11.5,25.63 25.635,25.63c14.135,0 25.635,-11.5 25.635,-25.63c-0,-14.14 -11.5,-25.64 -25.635,-25.64Zm-0,76.78c-28.202,0 -51.146,-22.94 -51.146,-51.14c-0,-28.21 22.944,-51.15 51.146,-51.15c28.202,-0 51.146,22.94 51.146,51.15c-0,28.2 -22.944,51.14 -51.146,51.14Z" style="fill:#231f20;fill-rule:nonzero;"/>

    <path d="M347.4,305.66c21.202,-0 38.39,17.181 38.39,38.391c0,21.199 -17.188,38.389 -38.39,38.389c-21.203,0 -38.391,-17.19 -38.391,-38.389c0,-21.21 17.188,-38.391 38.391,-38.391Z" style="fill:#231f20;fill-rule:nonzero;"/>

    <path d="M347.4,318.41c-14.135,-0 -25.635,11.5 -25.635,25.641c-0,14.129 11.5,25.629 25.635,25.629c14.135,-0 25.635,-11.5 25.635,-25.629c0,-14.141 -11.5,-25.641 -25.635,-25.641Zm-0,76.78c-28.202,0 -51.147,-22.94 -51.147,-51.139c-0,-28.21 22.945,-51.151 51.147,-51.151c28.202,-0 51.146,22.941 51.146,51.151c-0,28.199 -22.944,51.139 -51.146,51.139Z" style="fill:#231f20;fill-rule:nonzero;"/>

    <path d="M347.4,159.21c21.202,-0 38.39,17.18 38.39,38.39c0,21.2 -17.188,38.39 -38.39,38.39c-21.203,-0 -38.391,-17.19 -38.391,-38.39c0,-21.21 17.188,-38.39 38.391,-38.39Z" style="fill:#231f20;fill-rule:nonzero;"/>

    <path d="M347.4,171.96c-14.135,-0 -25.635,11.5 -25.635,25.64c-0,14.13 11.5,25.63 25.635,25.63c14.135,-0 25.635,-11.5 25.635,-25.63c0,-14.14 -11.5,-25.64 -25.635,-25.64Zm-0,76.78c-28.202,-0 -51.147,-22.94 -51.147,-51.14c-0,-28.21 22.945,-51.15 51.147,-51.15c28.202,-0 51.146,22.94 51.146,51.15c-0,28.2 -22.944,51.14 -51.146,51.14Z" style="fill:#231f20;fill-rule:nonzero;"/>

    <path d="M347.4,12.76c21.202,0 38.39,17.18 38.39,38.39c0,21.2 -17.188,38.39 -38.39,38.39c-21.203,0 -38.391,-17.19 -38.391,-38.39c0,-21.21 17.188,-38.39 38.391,-38.39Z" style="fill:#231f20;fill-rule:nonzero;"/>

    <path d="M347.4,25.51c-14.135,0 -25.635,11.5 -25.635,25.64c-0,14.13 11.5,25.63 25.635,25.63c14.135,0 25.635,-11.5 25.635,-25.63c0,-14.14 -11.5,-25.64 -25.635,-25.64Zm-0,76.78c-28.202,0 -51.147,-22.94 -51.147,-51.14c-0,-28.21 22.945,-51.15 51.147,-51.15c28.202,-0 51.146,22.94 51.146,51.15c-0,28.2 -22.944,51.14 -51.146,51.14Z" style="fill:#231f20;fill-rule:nonzero;"/>

</svg>